<svg xmlns="http://www.w3.org/2000/svg" width="19" height="19" viewBox="0 0 19 19" fill="none">
	<g clip-path="url(#clip0_901_131)">
		<path d="M18.0648 17.306L13.5427 12.6028C14.7058 11.2229 15.3434 9.47599 15.3425 7.67124C15.3425 3.44139 11.9011 0 7.67124 0C3.44139 0 0 3.44139 0 7.67124C0 11.9011 3.44139 15.3425 7.67124 15.3425C9.25919 15.3425 10.7724 14.8635 12.0662 13.9543L16.6226 18.6931C16.813 18.8909 17.0692 19 17.3437 19C17.6035 19 17.85 18.9009 18.0371 18.7208C18.2281 18.5367 18.3382 18.2844 18.3434 18.0191C18.3486 17.7539 18.2484 17.4974 18.0648 17.306ZM7.67124 2.00119C10.7978 2.00119 13.3413 4.54471 13.3413 7.67124C13.3413 10.7978 10.7978 13.3413 7.67124 13.3413C4.54471 13.3413 2.00119 10.7978 2.00119 7.67124C2.00119 4.54471 4.54471 2.00119 7.67124 2.00119Z" fill="white" fill-opacity="0.5" />
	</g>
	<defs>
		<clipPath id="clip0_901_131">
			<rect width="19" height="19" fill="white" />
		</clipPath>
	</defs>
</svg>
